nColumns=19
nRows=40
DataType=double
version=3
OpenSimVersion=4.1
endheader
time	ground_force_1_vx	ground_force_1_vy	ground_force_1_vz	ground_force_1_px	ground_force_1_py	ground_force_1_pz	ground_force_1_mx	ground_force_1_my	ground_force_1_mz	ground_force_2_vx	ground_force_2_vy	ground_force_2_vz	ground_force_2_px	ground_force_2_py	ground_force_2_pz	ground_force_2_mx	ground_force_2_my	ground_force_2_mz
0.05	0	0	0	-0.00251734	0	0.00148783	0	0	0	211.842	462.055	11.9562	0.601783	0	-0.656321	0	-21.0121	0
0.058333	0	0	0	-0.00251734	0	0.00148783	0	0	0	170.04	314.907	4.5261	0.573884	0	-0.655816	0	-13.2049	0
0.066667	0	0	0	-0.00251734	0	0.00148783	0	0	0	115.399	182.337	-0.122375	0.538683	0	-0.654862	0	-6.34828	0
0.075	0	0	0	-0.00251734	0	0.00148783	0	0	0	61.2948	91.3191	-0.250748	0.526249	0	-0.651104	0	-1.03537	0
0.083333	0	0	0	-0.00251735	0	0.00148782	0	0	0	23.6895	42.8152	2.06148	0.608848	0	-0.640974	-0	2.47206	-0
0.091667	0	0	0	-0.00251735	0	0.00148782	0	0	0	6.10565	20.6634	3.31814	0.772754	0	-0.622794	-0	4.23816	-0
0.1	0	0	0	-0.00251736	0	0.00148781	0	0	0	0	0	0	-0.00251736	0	0.00148781	0	0	0
0.108333	0	0	0	-0.00251737	0	0.00148781	0	0	0	0	0	0	-0.00251737	0	0.0014878	0	0	0
0.116667	0	0	0	-0.00251737	0	0.0014878	0	0	0	0	0	0	-0.00251738	0	0.0014878	0	0	0
0.125	0	0	0	-0.00251738	0	0.00148779	0	0	0	0	0	0	-0.00251739	0	0.00148779	0	0	0
0.133333	0	0	0	-0.0025174	0	0.00148778	0	0	0	0	0	0	-0.0025174	0	0.00148777	0	0	0
0.141667	0	0	0	-0.00251741	0	0.00148777	0	0	0	0	0	0	-0.00251741	0	0.00148776	0	0	0
0.15	0	0	0	-0.00251742	0	0.00148775	0	0	0	0	0	0	-0.00251742	0	0.00148775	0	0	0
0.158333	0	0	0	-0.00251744	0	0.00148774	0	0	0	0	0	0	-0.00251744	0	0.00148773	0	0	0
0.166667	-3.07936	14.3496	1.89301	1.04944	0	-0.598672	-0	3.5744	-0	0	0	0	-0.00251745	0	0.00148772	0	0	0
0.175	-7.01458	34.8248	-0.809718	1.10899	0	-0.602958	-0	5.54279	-0	0	0	0	-0.00251747	0	0.0014877	0	0	0
0.183333	-17.1524	96.2545	-6.44501	1.12615	0	-0.601598	-0	7.3291	-0	0	0	0	-0.00251749	0	0.00148768	0	0	0
0.191667	-38.0807	252.673	-12.9023	1.13757	0	-0.606647	-0	8.47209	-0	0	0	0	-0.00251751	0	0.00148766	0	0	0
0.2	-69.6339	525.95	-16.2319	1.13749	0	-0.613236	-0	8.60721	-0	0	0	0	-0.00251753	0	0.00148764	0	0	0
0.208333	-99.7272	831.754	-11.9943	1.12839	0	-0.618777	-0	7.60624	-0	0	0	0	-0.00251755	0	0.00148762	0	0	0
0.216667	-124.143	1046.49	1.53417	1.11499	0	-0.622627	-0	5.66019	-0	0	0	0	-0.00251757	0	0.0014876	0	0	0
0.225	-163.213	1155.75	19.7583	1.09981	0	-0.624551	-0	3.24834	-0	0	0	0	-0.0025176	0	0.00148757	0	0	0
0.233333	-212.749	1235.08	33.5539	1.08117	0	-0.625115	-0	0.987098	-0	0	0	0	-0.00251762	0	0.00148755	0	0	0
0.241667	-231.41	1343.01	36.8166	1.05285	0	-0.625675	0	-0.577936	0	0	0	0	-0.00251765	0	0.00148752	0	0	0
0.25	-203.5	1487.53	31.2217	1.01589	0	-0.626594	0	-1.13733	0	0	0	0	-0.00251768	0	0.0014875	0	0	0
0.258333	-155.157	1638.75	22.4057	0.979705	0	-0.626859	0	-0.674514	0	0	0	0	-0.0025177	0	0.00148747	0	0	0
0.266667	-111.744	1758.35	13.3969	0.94857	0	-0.625951	-0	0.57907	-0	0	0	0	-0.00251773	0	0.00148744	0	0	0
0.275	-75.0336	1831.51	3.97011	0.919283	0	-0.624628	-0	2.23897	-0	0	0	0	-0.00251777	0	0.00148741	0	0	0
0.283333	-36.8738	1866.05	-5.34306	0.888641	0	-0.623707	-0	3.87146	-0	0	0	0	-0.0025178	0	0.00148738	0	0	0
0.291667	2.00645	1869.61	-12.1261	0.857474	0	-0.623114	-0	5.08929	-0	0	0	0	-0.00251783	0	0.00148734	0	0	0
0.3	38.7897	1841.15	-14.9454	0.826907	0	-0.622549	-0	5.62735	-0	0	0	0	-0.00251786	0	0.00148731	0	0	0
0.308333	79.8215	1777.69	-14.6061	0.795055	0	-0.622291	-0	5.38261	-0	0	0	0	-0.0025179	0	0.00148727	0	0	0
0.316667	132.724	1677.28	-11.9841	0.759274	0	-0.62257	-0	4.41366	-0	0	0	0	-0.00251794	0	0.00148724	0	0	0
0.325	195.217	1543.03	-6.7792	0.720092	0	-0.623155	-0	2.91232	-0	0	0	0	-0.00251797	0	0.0014872	0	0	0
0.333333	250.727	1384.85	0.829387	0.681891	0	-0.623974	-0	1.15952	-0	0	0	0	-0.00251801	0	0.00148716	0	0	0
0.341667	282.46	1207.69	8.98215	0.647126	0	-0.625001	0	-0.531041	0	0	0	0	-0.00251805	0	0.00148712	0	0	0
0.35	288.244	1007.51	15.4369	0.613415	0	-0.625756	0	-1.8774	0	0	0	0	-0.00251809	0	0.00148708	0	0	0
0.358333	273.109	788.415	19.2115	0.579224	0	-0.625803	0	-2.68622	0	0	0	0	-0.00251813	0	0.00148704	0	0	0
0.366667	239.138	570.342	20.5633	0.548082	0	-0.625227	0	-2.88434	0	0	0	0	-0.00251818	0	0.001487	0	0	0
0.375	188.398	376.468	19.9544	0.52448	0	-0.623679	0	-2.51838	0	0	0	0	-0.00251822	0	0.00148695	0	0	0
